# xmcd
#
# Track frame offsets:
#	150
#	20352
#	37505
#	52252
#	67327
#	85990
#	109582
#	122495
#	138650
#	159837
#	198995
#	221982
#	247177
#
# Disc length: 3484 seconds
#
# Revision: 1
# Processed by: cddbd v1.4PL0 Copyright (c) Steve Scherf et al.
# Submitted via: audiograbber 1.81.02
#
DISCID=bb0d9a0d
DTITLE=Terraplanes - Well Tuned
DYEAR=2000
DGENRE=Blues
TTITLE0=So Hard To Let Go
TTITLE1=All Of The Above
TTITLE2=Always A First Time
TTITLE3=Best Ones
TTITLE4=Shiftin' Gears
TTITLE5=Old Black Jacket
TTITLE6=29 Ways
TTITLE7=Cry To Me
TTITLE8=Hand Me Down
TTITLE9=Starting To Feel Bad
TTITLE10=She Loves Me
TTITLE11=Under The Spell
TTITLE12=Choo Choo Ch-Boogie
EXTD=
EXTT0=
EXTT1=
EXTT2=
EXTT3=
EXTT4=
EXTT5=
EXTT6=
EXTT7=
EXTT8=
EXTT9=
EXTT10=
EXTT11=
EXTT12=
PLAYORDER=
